<svg width="375" height="249" viewBox="0 0 375 249" fill="none" xmlns="http://www.w3.org/2000/svg">
<g id="sentletter 1">
<g id="backround">
<g id="background">
<path id="Vector" d="M365.13 161.343C358.892 165.089 351.874 166.963 345.012 169.304C337.682 171.802 330.118 173.676 323.335 177.656C313.276 183.589 311.326 190.302 316.395 200.917C316.629 201.386 316.863 201.932 317.018 202.478C317.096 202.634 317.174 202.791 317.252 202.869C319.982 207.084 323.568 210.752 325.362 215.514C327.467 221.056 325.83 224.803 320.371 227.066C315.537 229.018 310.468 229.486 305.322 229.72C295.029 230.188 272.572 226.051 272.572 226.051C272.572 226.051 66.7149 199.903 63.5179 199.434C50.4958 197.561 37.3958 195.609 24.6857 191.941C19.5393 190.458 14.4708 188.818 9.94822 185.774C8.07679 184.525 6.51727 183.042 5.34762 181.169C1.68274 175.315 2.93036 169.617 8.85655 166.026C16.1863 161.577 24.5298 159.547 32.7173 157.362C46.2071 153.849 59.853 150.727 73.1869 146.59C76.9298 145.419 80.6726 144.17 84.4155 142.843C91.5113 140.267 98.4512 137.223 105.001 133.476C108.12 131.681 111.317 129.808 112.799 126.295C112.955 125.983 112.955 125.671 112.955 125.281C112.565 122.158 110.226 120.597 107.808 119.114C101.96 115.68 95.5661 113.65 89.0941 111.933C83.7917 110.528 78.5673 109.123 73.2649 107.64C62.7381 104.83 52.2113 102.098 41.7625 99.2097C34.6667 97.2583 27.7268 94.8386 21.4107 90.9357C20.2411 90.2332 19.1494 89.3746 18.1357 88.516C14.3149 85.0035 13.847 81.8812 16.4982 77.3539C18.6036 73.7633 21.5667 70.9533 24.8417 68.4555C36.1482 59.7912 49.0143 54.0931 62.1143 49.0975C88.2363 39.0282 115.138 31.847 142.976 28.3345C174.868 24.2756 205.512 28.7248 234.52 42.931C264.229 57.5276 292.534 74.5439 320.449 92.3408C329.573 98.195 338.54 104.205 346.727 111.23C356.63 118.724 365.988 126.842 371.992 138.004C377.216 147.995 374.877 155.488 365.13 161.343Z" fill="#4169E1"/>
</g>
</g>
<g id="Group 1">
<g id="plic">
<path id="Vector_2" d="M263.371 120.285C259.16 121.768 209.099 149.868 209.099 149.868C208.943 149.946 204.967 150.727 204.811 150.805L205.123 150.649C205.123 150.649 182.198 151.039 181.73 151.039C181.574 151.039 181.418 151.039 181.34 151.039C180.872 151.195 126.912 121.924 123.949 120.363C122.858 119.739 122.546 120.519 121.22 120.363C121.22 133.711 121.22 178.905 121.22 191.394C121.22 191.941 121.22 192.487 121.22 192.877L121.376 193.424L122.624 198.029C122.624 198.107 122.624 198.263 122.624 198.341C123.404 198.419 124.183 198.498 124.963 198.498C169.799 198.498 214.714 198.498 259.55 198.498C260.252 198.498 263.059 199.903 263.215 195.531C263.371 192.409 263.449 121.534 263.371 120.285Z" fill="#F2F4F7"/>
<path id="Vector_3" d="M260.642 114.977C255.963 111.152 251.207 107.406 246.762 103.191C244.89 101.708 242.395 99.8342 240.524 98.3511L208.554 71.0314H208.242C207.852 70.6411 207.54 70.2508 207.15 69.8605C205.746 68.7677 204.343 67.5969 202.939 66.5041C196.467 61.4304 188.358 61.3524 181.886 66.426C180.404 67.5969 178.923 68.7677 177.441 69.9386C177.129 70.3288 176.817 70.7191 176.427 71.1094H176.505C176.505 71.1094 140.48 101.161 138.609 102.644C137.283 103.737 135.88 104.908 134.554 106.001C131.123 109.591 126.679 112.089 123.248 115.68C121.922 117.007 120.908 118.334 121.22 120.363C122 120.441 182.588 150.493 182.665 151.664L204.811 150.883L213.856 146.122L214.012 146.044L242.083 131.837C245.28 130.12 248.477 128.247 251.674 126.529C255.573 124.5 259.16 121.846 263.371 120.363C263.761 117.865 262.357 116.382 260.642 114.977Z" fill="#C8C7C7"/>
</g>
<g id="x">
<path id="Vector_4" d="M263.293 195.531C261.733 195.297 261.032 194.126 260.174 193.034C258.848 191.238 257.289 189.599 255.495 188.35C239.276 177.188 223.057 166.026 206.916 154.864C204.031 152.913 204.109 152.6 207.15 150.961C216.429 145.887 225.63 140.97 234.832 135.74C236.781 134.647 239.198 134.023 240.602 132.071V131.993C240.602 131.837 240.602 131.759 240.602 131.603H240.524C239.822 131.837 239.12 132.071 238.496 132.384C230.309 136.911 222.043 141.36 213.856 145.966C211.907 147.058 209.879 148.151 207.93 149.244C206.994 149.79 206.058 150.259 205.045 150.649L183.601 151.273L182.042 151.429L178.689 150.415L121.22 120.207V121.378L179.079 152.6C179.78 153.381 180.17 154.161 179.39 154.708C165.745 164.231 126.523 187.648 122.702 192.955C122.468 193.268 121.766 193.268 121.298 193.346C121.298 194.517 121.22 195.766 121.22 196.936C121.22 198.029 121.532 198.654 122.702 198.185C122.546 197.092 123.482 196.702 124.183 196.312C130.343 192.097 136.426 187.882 142.586 183.667C157.011 173.754 170.735 164.621 185.161 154.63C185.239 154.552 186.174 153.693 186.33 153.615H198.339C207.072 159.625 215.805 165.636 224.539 171.646C236.079 179.53 247.62 187.335 259.082 195.297C260.096 196 261.733 196.39 261.655 198.185C264.54 198.732 263.293 196.78 263.293 195.531Z" fill="#E9E9E9"/>
</g>
</g>
<g id="letter 2">
<g id="letter 1">
<path id="letter" d="M241.382 132.228C236.937 133.633 214.558 147.761 207.072 151.586C206.058 152.054 203.563 151.586 200.366 151.742C192.101 152.054 179.312 151.898 175.648 149.712C168.24 145.341 160.52 141.282 152.957 137.223C150.383 135.818 148.122 133.945 145.159 133.476C145.081 123.017 145.081 112.479 145.003 102.02C145.003 95.1508 145.081 88.3599 145.003 81.4909C144.925 78.837 145.627 76.8075 147.966 75.4025C148.59 75.3245 149.136 75.1683 149.76 75.0903C152.255 75.0903 154.672 75.2464 157.167 75.1683C163.873 75.0903 170.579 75.4806 177.285 74.9342C187.89 75.4025 198.573 75.2464 209.177 75.0122C217.833 75.0122 226.488 75.0903 235.143 75.1683C240.29 75.1683 241.693 76.5734 241.771 81.7251C241.849 88.6721 241.849 95.6191 241.927 102.566C241.771 112.713 242.083 122.08 241.382 132.228Z" fill="#FDFDFD"/>
</g>
</g>
<g id="galocica">
<g id="galocica 1">
<path id="Vector_5" d="M188.982 129.886C188.202 129.808 187.734 129.261 187.266 128.793C183.991 125.515 180.794 122.158 177.441 118.958C175.492 117.085 176.661 115.914 178.065 114.509C179.39 113.182 180.56 112.089 182.276 114.04C183.913 115.914 185.863 117.475 187.5 119.348C188.67 120.675 189.371 120.753 190.697 119.426C195.064 114.821 199.664 110.45 204.109 105.923C205.902 104.049 207.072 104.205 208.71 106.001C210.971 108.42 211.049 108.576 208.943 110.762C203.017 116.694 197.091 122.627 191.165 128.559C190.541 129.183 189.995 129.886 188.982 129.886Z" fill="#1D1D1D"/>
</g>
</g>
</g>
</svg>
