<!-- Generated by IcoMoon.io -->
<svg version="1.1" xmlns="http://www.w3.org/2000/svg" width="52" height="32" viewBox="0 0 52 32">
<title>vmlogo8-Converted</title>
<path fill="#4f4f4f" d="M15.626 6.090l4.473-5.577c0.134-0.167 0.323-0.257 0.535-0.257l28.899 0.022c0.58 0 0.892 0.669 0.535 1.115l-4.796 5.967-19.419 24.125c-0.279 0.346-0.792 0.346-1.071 0l-24.215-30.093c-0.357-0.446-0.045-1.115 0.535-1.115h7.205c0.212 0 0.402 0.089 0.535 0.257l15.939 19.798c0.279 0.346 0.792 0.346 1.071 0l10.44-12.972 0.825-0.993c0.368-0.446 0.056-1.127-0.524-1.127v0c-0.212 0-0.402 0.089-0.535 0.257l-10.206 12.615c-0.279 0.346-0.792 0.335-1.071 0l-3.58-4.462c-0.201-0.257-0.201-0.613 0-0.859l5.209-6.436c0.368-0.446 0.045-1.115-0.535-1.127h-0.245c-0.212 0-0.402 0.089-0.535 0.257l-4.818 5.923c-0.279 0.335-0.792 0.335-1.071 0l-3.58-4.462c-0.201-0.245-0.201-0.602 0-0.859z"></path>
</svg>
